{"title":"Spain.In.The.Ass.XXX.DVDRip.XviD","uid":9068555,"size":1455212192,"categoryP":"porn","categoryS":"movies","magnet":"?xt=urn:btih:b67544864735073edeca5ccd0167fa246a88192d&amp;dn=Spain.In.The.Ass.XXX.DVDRip.XviD&amp;tr=udp%3A%2F%2Ftracker.openbittorrent.com%3A80&amp;tr=udp%3A%2F%2Fopen.demonii.com%3A1337&amp;tr=udp%3A%2F%2Ftracker.coppersurfer.tk%3A6969&amp;tr=udp%3A%2F%2Fexodus.desync.com%3A6969","seeders":0,"leechers":2,"uploader":null,"files":3,"time":1382149294,"description":" &lt;a href=&quot;http://www.hostpornpics.net/pornmg/share.php?id=AAA7_5261D003&quot; rel=&quot;nofollow&quot; target=&quot;_NEW&quot;&gt;http://www.hostpornpics.net/pornmg/share.php?id=AAA7_5261D003&lt;/a&gt;\n\n\n\nForget about flamenco dancing and bullfighting, fly to Spain for the five-star ASS! These sweet Spanish senoritas have the most perfectly plump asses we\u0012ve ever crammed a cock into, big round rumps just screaming to be fucked fast and hard. Don't be fooled these ain't some fake fifty dollar TJ hookers pretending to be Spanish queens just to get a buck. These sultry Spanish sluts dream of giving their curves to you to jam a hard cock into! Grab the lube and join us for Spanish Inquisition, ZT style, Enjoy!\n\nVideo\nFormat: MPEG-4 Visual\nFormat profile: Streaming Video@L1\nFormat settings, BVOP: Yes\nFormat settings, QPel: No\nFormat settings, GMC: No warppoints\nFormat settings, Matrix: Default\nCodec ID: XVID\nCodec ID/Hint: XviD\nDuration: 1h 9mn\nBit rate: 1 258 Kbps\nWidth: 512 pixels\nHeight: 288 pixels\nDisplay aspect ratio: 16/9\nFrame rate: 29.970 fps\nResolution: 24 bits\nColorimetry: 4:2:0\nScan type: Progressive\nBits/(Pixel*Frame): 0.285\nStream size: 630 MiB (90%)\nWriting library: XviD 1.1.2 (UTC 2006-11-01)\n\nAudio\nFormat: MPEG Audio\nFormat version: Version 1\nFormat profile: Layer 3\nCodec ID: 55\nCodec ID/Hint: MP3\nDuration: 1h 9mn\nBit rate mode: Variable\nBit rate: 125 Kbps\nChannel(s): 2 channels\nSampling rate: 48.0 KHz\nResolution: 16 bits\nStream size: 62.6 MiB (9%)\nAlignment: Aligned on interleaves\nInterleave, duration: 24 ms (0.72 video frame)\nInterleave, preload duration: 470 ms","torrent":{"xt":"urn:btih:b67544864735073edeca5ccd0167fa246a88192d","amp;dn":"Spain.In.The.Ass.XXX.DVDRip.XviD","amp;tr":["udp%3A%2F%2Ftracker.openbittorrent.com%3A80","udp%3A%2F%2Fopen.demonii.com%3A1337","udp%3A%2F%2Ftracker.coppersurfer.tk%3A6969","udp%3A%2F%2Fexodus.desync.com%3A6969"],"infoHash":"b67544864735073edeca5ccd0167fa246a88192d","infoHashBuffer":{"type":"Buffer","data":[182,117,68,134,71,53,7,62,222,202,92,205,1,103,250,36,106,136,25,45]},"announce":[],"urlList":[]}}